<?xml version="1.0" standalone="no"?>
<!DOCTYPE svg PUBLIC "-//W3C//DTD SVG 20010904//EN"
 "http://www.w3.org/TR/2001/REC-SVG-20010904/DTD/svg10.dtd">
<svg version="1.0" xmlns="http://www.w3.org/2000/svg"
 width="610.000000pt" height="613.000000pt" viewBox="0 0 610.000000 613.000000"
 preserveAspectRatio="xMidYMid meet">
<metadata>
Created by potrace 1.15, written by Peter Selinger 2001-2017
</metadata>
<g transform="translate(0.000000,613.000000) scale(0.100000,-0.100000)"
fill="#000000" stroke="none">
<path d="M1507 5583 c-4 -3 -7 -86 -7 -183 l0 -176 -62 -1 c-153 -1 -353 -83
-590 -241 -65 -43 -82 -62 -56 -62 12 0 151 91 156 103 2 4 12 7 23 7 10 0 19
4 19 9 0 5 9 13 21 16 11 4 46 22 77 40 86 49 241 99 344 110 50 6 58 4 68
-14 7 -15 7 -21 0 -21 -8 0 -8 -6 0 -20 8 -14 21 -20 45 -20 l35 0 0 -70 0
-70 30 0 29 0 4 83 3 82 2 -82 c2 -65 5 -83 17 -83 11 0 15 18 18 78 l3 77 2
-77 c2 -62 5 -78 17 -78 12 0 15 14 15 68 0 38 3 72 6 75 4 3 6 73 6 154 -1
81 -1 183 -2 226 l0 77 -108 0 c-60 0 -112 -3 -115 -7z"/>
<path d="M1580 4901 c0 -31 -3 -107 -7 -168 l-6 -113 56 0 57 0 0 170 c0 166
-7 203 -30 148 l-9 -23 0 22 c-1 17 -7 21 -31 21 -30 -1 -30 -2 -30 -57z"/>
<path d="M4435 4784 c-20 -31 -34 -63 -30 -72 6 -17 -415 -653 -428 -645 -4 2
-6 1 -5 -4 2 -4 -22 -48 -52 -96 -60 -96 -48 -91 -150 -68 -74 17 -260 13
-319 -5 l-50 -17 -56 44 c-126 99 -182 143 -228 176 -27 20 -44 40 -40 46 3 7
3 9 -2 5 -4 -4 -21 2 -38 14 -25 18 -28 23 -14 32 19 14 10 26 -54 78 l-47 37
-45 -58 -46 -58 32 -30 c44 -41 77 -62 91 -57 9 3 161 -112 333 -252 l42 -34
-35 -57 c-32 -53 -74 -166 -74 -198 0 -11 51 -14 253 -14 138 0 306 -5 372
-11 66 -5 142 -10 168 -10 l49 0 -7 43 c-12 70 -44 144 -87 198 l-40 51 278
414 c179 267 282 413 291 410 8 -3 29 19 54 56 33 47 39 62 28 68 -8 5 -31 22
-53 39 -21 17 -42 31 -47 31 -5 0 -25 -25 -44 -56z"/>
<path d="M1577 4583 c-3 -5 -8 -92 -12 -195 l-7 -187 76 0 76 0 2 152 c1 84 2
171 3 195 2 54 -22 58 -28 5 l-4 -38 -1 38 c-2 29 -6 37 -21 37 -12 0 -21 -8
-24 -22 l-4 -23 -2 23 c-1 16 -7 22 -25 22 -14 0 -27 -3 -29 -7z"/>
<path d="M5112 4249 c-188 -33 -367 -130 -552 -297 -41 -37 -77 -66 -80 -65
-3 1 -6 -7 -7 -17 -3 -33 165 -179 331 -289 178 -116 337 -173 488 -175 81 -1
94 -3 85 -15 -7 -8 -11 -40 -11 -72 1 -46 6 -66 27 -97 34 -48 34 -57 -3 -99
-34 -39 -36 -50 -14 -101 l15 -37 -53 -47 c-29 -26 -55 -48 -58 -48 -3 0 -5
53 -6 118 0 117 -14 180 -35 166 -8 -4 -8 -8 -1 -13 22 -13 23 -95 8 -481 -9
-217 -22 -588 -31 -825 -22 -631 -31 -712 -94 -840 -54 -109 -138 -176 -227
-181 -56 -3 -59 -5 -74 -59 -12 -44 -30 -69 -30 -43 0 10 -3 9 -9 -1 -8 -12
-12 -13 -26 -1 -14 12 -15 10 -5 -15 6 -16 34 -67 62 -113 l50 -84 -39 -41
c-71 -75 -103 -112 -103 -119 0 -5 -18 -8 -40 -8 -49 0 -52 15 -9 56 17 16 49
50 71 76 l40 48 -70 117 c-49 82 -67 120 -59 125 8 5 8 8 1 8 -6 0 -9 10 -7
23 5 25 -19 53 -37 42 -5 -3 -10 -28 -10 -56 0 -37 -4 -49 -15 -49 -9 0 -16
10 -16 28 -3 53 -4 57 -12 69 -16 25 -34 2 -36 -45 -1 -40 7 -61 54 -145 30
-53 55 -101 55 -105 0 -9 -137 -166 -149 -170 -4 -1 -235 20 -512 48 -277 27
-646 64 -819 80 -516 50 -923 91 -955 96 -25 5 -39 20 -85 97 -30 51 -55 99
-55 109 0 9 31 51 69 93 l70 77 75 -5 c138 -10 324 -27 456 -42 236 -27 400
-34 898 -41 489 -7 989 5 1142 27 98 14 166 50 219 117 49 61 92 173 101 264
7 67 27 445 65 1228 16 322 13 538 -7 599 -34 105 -112 156 -330 216 -111 31
-638 87 -1133 121 -374 26 -900 -2 -1440 -77 -80 -11 -181 -24 -225 -30 -184
-22 -319 -98 -366 -205 -17 -38 -18 -58 -9 -260 5 -121 14 -343 20 -494 5
-151 15 -378 20 -505 5 -126 12 -306 16 -400 8 -245 26 -337 84 -428 18 -28
37 -47 51 -49 21 -3 17 -11 -50 -86 -41 -47 -71 -89 -68 -96 3 -8 28 -50 56
-95 28 -44 51 -83 51 -86 0 -3 -17 -5 -38 -5 -37 0 -38 1 -96 105 l-58 105 41
41 c23 23 41 49 41 57 0 8 -13 36 -28 61 -32 52 -67 183 -76 281 -3 36 -8 160
-12 275 -3 116 -10 248 -14 295 -4 47 -7 126 -6 175 2 50 -3 250 -10 445 -8
195 -14 381 -14 413 0 50 -2 57 -20 57 -11 0 -20 7 -20 15 0 8 8 15 19 15 16
0 18 6 14 45 -10 84 41 222 97 263 20 15 30 32 31 50 0 18 3 22 7 12 10 -23
41 -22 35 1 -5 17 -16 19 -88 19 l-82 0 -11 -142 c-14 -176 -11 -164 -37 -166
-16 -1 -27 9 -43 41 -31 62 -90 138 -144 185 -47 40 -184 114 -216 117 -9 1
-38 5 -64 9 l-48 7 0 65 c0 35 4 64 9 64 4 0 22 13 39 29 16 16 32 27 35 25 2
-3 7 4 10 16 4 15 0 20 -15 20 -10 0 -17 4 -13 9 3 5 -5 11 -17 13 -13 2 -22
9 -21 16 2 6 -7 12 -20 12 -17 0 -19 2 -8 9 11 7 9 10 -10 13 -13 2 -23 9 -22
16 2 7 -8 12 -23 12 -21 0 -24 3 -15 14 9 11 6 12 -14 8 -14 -2 -25 0 -25 7 0
8 -7 8 -24 0 -17 -8 -29 -8 -44 0 -20 11 -43 8 -160 -21 l-53 -14 29 -44 c16
-25 36 -58 46 -74 15 -24 23 -28 51 -23 34 6 65 -17 65 -49 0 -8 5 -12 10 -9
6 3 13 -2 16 -12 3 -10 10 -27 16 -37 8 -15 6 -22 -8 -33 -9 -7 -14 -16 -11
-20 4 -3 7 -3 7 1 0 4 7 1 15 -8 21 -21 20 -23 -22 -37 -72 -24 -166 -89 -231
-161 -19 -21 -38 -38 -42 -38 -8 0 -50 95 -50 113 0 6 -10 30 -21 55 -15 31
-20 55 -16 83 3 21 1 42 -5 45 -5 3 -7 13 -4 21 5 12 1 14 -21 8 -16 -3 -37
-14 -48 -23 l-20 -17 20 24 c15 18 20 39 21 90 3 92 4 98 20 112 8 6 14 23 14
38 -1 26 -1 26 -14 -5 -19 -42 -30 -48 -65 -29 -42 21 -52 19 -16 -5 35 -23
44 -43 35 -84 -4 -22 -12 -32 -27 -34 -17 -3 -26 6 -42 40 l-19 43 -1 -42 c-1
-55 -15 -55 -64 -1 l-39 43 31 -47 c17 -26 37 -51 45 -55 7 -4 18 -18 24 -30
18 -33 -13 -39 -44 -8 -15 15 -24 19 -24 10 0 -7 14 -25 31 -39 17 -14 25 -26
18 -26 -7 0 -4 -6 7 -14 18 -14 17 -15 -16 -30 l-35 -15 35 -2 c19 -1 39 -1
43 0 5 1 0 -10 -12 -25 -12 -15 -21 -33 -21 -41 0 -8 -6 -26 -14 -41 -29 -57
-28 -66 6 -81 19 -9 36 -11 43 -5 48 36 64 44 76 39 19 -7 69 -98 69 -124 0
-12 6 -21 15 -21 23 0 28 -44 12 -97 -22 -70 -30 -120 -28 -188 l1 -60 -17 27
c-10 16 -21 28 -25 28 -5 0 -8 7 -8 15 0 8 -7 15 -16 15 -10 0 -14 6 -10 15 4
11 -1 15 -19 15 -16 0 -25 6 -25 15 0 9 -10 15 -26 15 -14 0 -23 4 -20 9 6 9
-29 22 -72 27 -25 3 -64 -24 -55 -39 3 -4 -9 -26 -26 -47 -17 -21 -31 -44 -31
-51 0 -6 -9 -27 -21 -46 l-21 -34 25 -23 c23 -21 24 -26 12 -42 -12 -17 -17
-17 -36 -6 -18 12 -23 12 -30 0 -14 -21 -11 -36 11 -58 32 -32 70 -19 70 24 0
12 5 28 11 36 9 13 10 12 5 -2 -4 -15 1 -18 28 -18 20 0 36 6 39 14 11 29 64
29 112 1 25 -14 45 -32 45 -40 0 -16 30 -35 55 -35 28 0 130 -78 184 -140 48
-55 49 -58 28 -64 -12 -3 -32 -6 -44 -6 -13 0 -23 -5 -23 -11 0 -6 -7 -8 -17
-5 -10 4 -25 -2 -40 -16 -18 -17 -23 -18 -17 -5 8 23 -9 22 -31 -3 -18 -20
-41 -28 -30 -10 3 5 0 7 -9 4 -8 -3 -25 -22 -37 -42 -16 -27 -23 -33 -27 -22
-4 8 -11 -6 -17 -34 l-10 -48 -15 28 c-23 45 -59 92 -77 99 -15 5 -15 4 -1
-12 18 -21 38 -77 38 -106 0 -12 9 -30 20 -42 12 -12 24 -44 29 -71 5 -29 23
-71 44 -104 21 -30 37 -65 37 -77 0 -21 25 -43 49 -43 18 0 12 47 -9 82 -33
54 -19 101 18 61 7 -7 10 -13 7 -13 -3 0 2 -8 12 -18 17 -18 44 -32 70 -38 14
-3 27 27 15 35 -5 3 -11 14 -15 24 -4 10 -11 16 -16 13 -8 -5 -17 13 -26 53
-2 8 -11 21 -21 30 -11 11 -14 11 -9 2 5 -9 4 -12 -3 -7 -7 4 -12 14 -12 22 0
8 -4 14 -10 14 -5 0 -10 13 -10 28 0 30 12 40 82 63 27 9 49 10 82 2 36 -8 46
-7 46 2 0 22 162 71 188 56 12 -7 12 -9 -2 -14 -9 -4 -16 -11 -16 -17 0 -6 4
-9 9 -6 5 4 20 1 33 -4 22 -10 22 -10 -4 -5 -19 4 -28 1 -28 -7 0 -9 -3 -9
-10 2 -7 12 -13 11 -37 -10 -15 -14 -30 -29 -31 -33 -2 -4 -17 -20 -32 -35
-15 -15 -41 -53 -57 -84 -17 -32 -34 -54 -38 -50 -4 4 -5 -3 -2 -16 3 -14 1
-20 -5 -16 -6 4 -8 1 -6 -7 3 -8 0 -23 -5 -34 -6 -11 -12 -26 -13 -33 -1 -8
-6 -17 -10 -20 -4 -4 -4 1 -1 10 13 37 -5 16 -26 -30 -12 -26 -33 -61 -46 -77
-18 -24 -22 -37 -17 -70 4 -22 9 -88 12 -147 l6 -107 -43 -11 c-60 -15 -123
-37 -194 -70 -33 -15 -76 -30 -96 -34 -60 -11 -86 -54 -69 -117 27 -99 135
-159 206 -113 13 9 28 13 32 9 4 -4 7 -91 8 -193 0 -103 1 -192 2 -199 4 -25
70 -63 128 -73 32 -6 75 -15 94 -20 19 -5 311 -12 655 -14 581 -5 732 -11 980
-36 55 -6 127 -12 160 -14 33 -3 128 -11 210 -20 83 -9 179 -18 215 -21 36 -3
148 -15 250 -26 308 -32 370 -38 500 -49 218 -19 431 -40 560 -55 69 -8 201
-21 293 -30 93 -9 185 -18 205 -20 43 -5 171 -15 257 -21 33 -2 86 -6 119 -10
l58 -5 69 73 c38 41 69 82 69 93 0 15 -22 -3 -83 -67 l-82 -87 -64 7 -64 7 72
83 c39 45 71 87 71 93 0 6 -26 53 -57 104 -45 75 -62 95 -82 97 -21 2 -25 8
-23 28 7 48 27 67 82 73 61 7 127 43 165 89 14 18 32 40 40 50 41 51 105 347
105 490 0 55 16 62 60 28 28 -22 61 -25 91 -10 12 7 19 7 19 1 0 -9 51 8 138
45 19 8 32 10 32 4 0 -6 8 -14 18 -17 9 -4 22 -10 27 -15 6 -4 35 -27 65 -51
30 -23 77 -58 103 -77 l48 -34 35 19 c36 19 74 59 74 78 0 5 -18 -7 -40 -27
-22 -20 -49 -36 -60 -36 -10 0 -60 31 -110 69 -137 105 -153 120 -146 136 3 9
-7 29 -24 48 -49 56 -158 75 -215 37 -37 -25 -55 -25 -55 -2 0 10 -11 29 -25
42 -22 20 -25 32 -25 87 0 82 17 119 77 168 170 138 234 382 144 552 -26 49
-26 41 -1 -24 44 -117 33 -227 -35 -348 -30 -54 -101 -137 -148 -174 -16 -13
-17 -11 -15 17 1 20 16 47 41 74 46 52 79 114 102 193 33 113 0 256 -86 370
-39 52 -49 72 -27 59 6 -4 8 -3 5 3 -3 5 -8 20 -11 34 -3 13 -8 35 -12 49 -6
24 -5 24 14 -4 12 -17 18 -34 15 -39 -3 -5 -1 -12 3 -16 23 -16 114 -129 114
-142 1 -8 9 9 19 36 10 28 43 95 73 150 44 81 61 103 90 117 20 10 45 30 56
45 34 49 63 113 56 125 -4 6 -3 8 4 4 6 -3 13 -2 16 3 3 5 36 9 74 10 71 0
132 22 165 58 19 22 77 137 77 154 0 6 6 25 14 42 7 18 18 45 25 60 6 15 11
66 11 112 0 84 0 85 -31 101 -25 12 -30 20 -24 37 10 31 18 93 12 87 -6 -6
-117 -326 -121 -350 -2 -8 -1 -9 1 -2 3 6 10 12 17 12 17 0 56 -38 56 -55 0
-18 -5 -18 -31 -5 -25 14 -24 2 3 -27 21 -22 21 -23 3 -63 -10 -23 -35 -54
-54 -69 -41 -31 -99 -57 -108 -48 -3 4 5 11 18 16 24 9 69 47 69 57 0 3 -13
-4 -30 -16 -16 -12 -47 -24 -67 -27 l-38 -6 43 32 c55 41 53 47 -4 16 -26 -14
-61 -25 -78 -25 l-31 0 43 26 c47 28 51 44 5 21 -15 -8 -46 -17 -68 -21 l-40
-6 27 20 c70 54 74 60 24 35 -27 -14 -61 -25 -75 -25 -25 0 -24 1 11 23 20 12
46 34 58 49 20 26 19 26 -30 -7 -53 -36 -134 -55 -152 -37 -7 7 0 12 20 17 47
10 106 58 136 110 27 45 29 64 7 50 -6 -3 -21 -24 -32 -47 -26 -51 -34 -44
-14 12 8 24 14 44 13 46 -2 1 -19 6 -38 12 l-35 9 40 7 c43 7 104 -6 195 -43
53 -22 54 -22 36 -2 -26 29 -90 58 -177 80 -67 17 -71 20 -44 27 35 9 126 -9
190 -37 26 -11 49 -18 52 -16 15 15 -143 87 -191 87 -12 0 -28 5 -36 11 -11 7
6 9 60 6 56 -4 92 -13 140 -35 107 -50 88 -19 -24 39 -33 17 -87 37 -120 45
l-61 14 80 -3 c65 -3 92 -9 143 -34 66 -32 75 -33 40 -2 -41 35 -120 71 -187
85 l-66 13 80 -2 c67 -2 92 -8 149 -35 38 -18 71 -31 72 -29 8 7 -78 69 -121
88 -25 11 -68 21 -96 21 -37 1 -46 4 -34 11 33 18 139 3 206 -30 l64 -31 -45
39 c-48 42 -114 69 -173 71 -60 2 -30 18 34 18 48 0 73 -7 132 -36 69 -35 71
-35 48 -10 -36 38 -102 74 -162 88 l-53 12 34 8 c45 9 70 3 155 -40 60 -30 67
-31 50 -12 -11 12 -39 36 -62 52 -38 26 -43 33 -43 68 0 22 -4 40 -10 40 -5 0
-10 4 -10 9 0 13 55 -7 71 -25 6 -8 20 -14 31 -14 10 0 21 -7 24 -15 4 -8 11
-15 18 -15 6 0 32 -23 58 -52 42 -46 48 -50 48 -30 0 15 -13 36 -35 54 -19 17
-32 36 -28 41 3 6 1 7 -5 3 -5 -3 -24 5 -40 19 -43 36 -116 66 -160 66 -47 0
-141 -25 -193 -51 -45 -24 -77 -57 -96 -100 -11 -26 -10 -30 5 -30 12 -1 8 -6
-10 -16 -16 -8 -28 -22 -28 -30 0 -8 5 -12 10 -9 6 3 10 2 10 -4 0 -5 -9 -12
-19 -16 -26 -8 -36 -35 -13 -35 13 -1 10 -6 -11 -21 -26 -20 -26 -22 -11 -34
17 -12 16 -13 -3 -19 -27 -9 -39 -36 -15 -36 14 0 13 -4 -6 -18 -14 -11 -21
-24 -17 -34 5 -11 -2 -17 -26 -22 -65 -13 -196 -6 -280 15 -146 36 -379 162
-522 281 -57 48 -58 45 58 127 125 89 254 152 377 185 l47 13 -45 -40 c-70
-61 -97 -125 -97 -222 0 -99 18 -141 83 -205 181 -176 483 -48 484 205 0 61
-4 78 -34 133 -34 65 -64 93 -133 130 -49 26 -33 35 45 26 92 -10 217 -56 298
-108 77 -50 110 -58 110 -27 0 18 -47 62 -105 99 -56 36 -208 101 -269 116
-85 21 -242 28 -314 15z m230 -143 c21 -10 35 -22 32 -27 -3 -5 -16 -2 -29 7
-45 29 -227 31 -209 2 4 -6 3 -8 -4 -4 -13 8 -75 -45 -101 -87 -11 -18 -22
-50 -25 -72 -3 -22 -3 -33 0 -25 37 95 72 138 134 170 73 37 210 19 225 -31 4
-11 10 -17 15 -14 13 8 46 -44 65 -101 14 -43 14 -59 5 -95 -27 -103 -90 -163
-192 -182 -70 -13 -106 -3 -179 50 -65 46 -94 107 -94 193 1 106 58 187 159
227 43 17 153 11 198 -11z m-4490 -896 c3 -16 1 -30 -4 -30 -5 0 -7 -4 -4 -9
3 -5 0 -11 -8 -14 -15 -6 -19 -57 -4 -57 6 0 7 12 4 28 -5 21 -4 24 4 12 9
-11 13 -12 17 -2 5 13 23 7 23 -9 0 -6 -4 -7 -10 -4 -5 3 -10 0 -10 -9 0 -8 6
-16 13 -19 6 -2 -4 -3 -23 -2 -19 1 -42 -3 -50 -9 -12 -8 -13 -8 -2 4 6 8 12
21 11 30 -1 24 -21 -31 -26 -70 -2 -19 -6 -36 -8 -38 -2 -3 -1 -12 4 -21 5 -9
11 -36 14 -61 4 -30 3 -38 -3 -25 -8 18 -9 17 -9 -7 -1 -29 14 -46 22 -26 3 8
6 6 6 -4 1 -10 6 -18 11 -18 6 0 10 8 10 18 0 11 5 8 15 -12 18 -34 19 -50 3
-40 -8 5 -9 0 -6 -14 4 -12 2 -22 -4 -22 -6 0 -8 13 -4 33 5 28 3 33 -14 33
-11 0 -20 -6 -20 -14 0 -7 5 -10 12 -6 8 5 9 0 5 -15 -3 -12 1 -28 10 -36 8
-8 11 -15 7 -15 -4 0 -1 -8 7 -17 11 -14 13 -52 11 -180 -2 -93 -7 -163 -13
-163 -27 0 -102 47 -148 93 -56 55 -128 185 -118 211 4 9 2 18 -3 21 -6 3 -9
43 -9 88 1 86 28 194 55 221 8 8 14 18 14 21 -1 14 32 63 62 91 39 37 140 103
149 98 4 -2 9 -17 11 -34z m3904 -151 c134 -34 147 -226 18 -275 -136 -52
-253 81 -181 206 18 33 67 67 115 79 2 1 23 -4 48 -10z m54 -449 c77 -77 80
-170 7 -238 -27 -25 -90 -39 -132 -28 -32 8 -30 21 12 72 122 151 124 154 113
174 -14 26 -22 25 -46 -2 -46 -53 -144 -190 -144 -201 0 -7 -9 -1 -20 13 -22
28 -27 99 -10 146 6 16 27 41 48 56 49 36 140 40 172 8z m-1363 -766 c38 -38
29 -96 -26 -169 -23 -30 -38 -55 -34 -56 4 0 24 -1 43 -2 30 -2 35 -5 35 -27
0 -24 -2 -25 -77 -28 l-78 -3 0 27 c0 15 21 58 50 101 50 75 62 116 36 126
-19 7 -26 -1 -26 -30 0 -19 -5 -23 -30 -23 -27 0 -30 3 -30 30 0 71 86 105
137 54z m180 2 c28 -24 28 -26 28 -135 0 -97 -2 -113 -20 -130 -34 -34 -77
-37 -111 -8 -28 24 -29 29 -32 122 -3 62 0 107 9 126 21 52 81 64 126 25z
m304 5 c23 -18 25 -30 20 -121 0 -14 2 -48 5 -75 8 -69 -16 -100 -76 -100 -60
0 -84 31 -76 100 3 27 5 61 5 75 -5 91 -3 103 20 121 13 11 36 19 51 19 15 0
38 -8 51 -19z m-161 -142 l0 -150 -27 3 -28 3 -3 113 c-2 90 -5 112 -17 112
-23 0 -18 36 8 53 12 9 32 16 45 16 22 1 22 0 22 -150z m1690 -79 c0 -5 6 -7
13 -4 19 7 82 -39 85 -63 4 -28 -33 -53 -80 -53 -29 0 -36 3 -32 15 7 17 -11
21 -21 5 -10 -16 -21 -12 -55 16 -24 21 -28 29 -19 40 8 10 8 14 0 14 -20 0
-12 20 12 30 30 12 97 12 97 0z m-840 -402 c27 -32 25 -72 -5 -103 -51 -51
-126 -21 -128 50 -2 76 86 110 133 53z m304 8 c52 -47 20 -136 -49 -136 -36 0
-70 30 -80 70 -5 20 1 33 25 58 36 38 69 41 104 8z m-2884 -253 c0 -5 -31 -44
-69 -89 l-70 -81 55 -89 c30 -49 54 -92 54 -96 0 -5 -8 -8 -17 -8 -12 0 -40
36 -80 102 l-63 101 71 83 c53 62 77 84 95 84 13 0 24 -3 24 -7z"/>
<path d="M5177 3962 c-10 -4 -26 -21 -37 -37 -72 -109 74 -230 164 -136 14 15
28 40 32 57 5 25 2 32 -20 42 -19 9 -26 19 -26 41 0 17 -6 31 -16 35 -20 8
-74 7 -97 -2z"/>
<path d="M1571 4160 c-9 -6 -28 -247 -23 -297 l3 -33 80 0 79 0 0 165 c0 150
-2 165 -17 166 -10 0 -40 1 -66 2 -26 2 -51 0 -56 -3z"/>
<path d="M1547 3683 c-4 -58 -7 -146 -7 -194 l0 -88 84 0 85 0 3 27 c2 15 2
102 0 195 l-3 167 -78 0 -78 0 -6 -107z"/>
<path d="M2914 775 l-10 -54 41 -5 c68 -9 346 -28 350 -24 1 1 5 27 9 56 5 42
3 52 -8 52 -18 0 -253 18 -321 25 l-51 5 -10 -55z"/>
</g>
</svg>
